<svg width="309" height="63" viewBox="0 0 309 63" fill="none" xmlns="http://www.w3.org/2000/svg">
<mask id="mask0_45_59" style="mask-type:luminance" maskUnits="userSpaceOnUse" x="0" y="0" width="309" height="63">
<path d="M308.51 0H0V62.44H308.51V0Z" fill="white"/>
</mask>
<g mask="url(#mask0_45_59)">
<path d="M204.74 50.6C204.64 50.6 204.53 50.58 204.44 50.52C204.15 50.35 204.05 49.99 204.22 49.7L225.99 12.02C226.16 11.73 226.52 11.63 226.81 11.8C227.1 11.97 227.2 12.33 227.03 12.62L205.26 50.3C205.15 50.49 204.95 50.6 204.74 50.6Z" fill="white"/>
<path d="M108.23 18.29H112.03V19.65H111.12V26.4H112.03V27.76H108.23V26.4H109.48V23.57H105.26V26.4H106.51V27.76H102.69V26.4H103.61V19.65H102.69V18.29H106.51V19.65H105.26V22.14H109.48V19.65H108.23V18.29Z" fill="white"/>
<path d="M113.09 29.52H114.84L115.65 27.71L113.41 22.72H112.35V21.36H115.12V22.7L116.41 25.92L117.75 22.71H116.34V21.35H120.12V22.71H119.28L116.44 29.49C115.98 30.58 115.28 30.91 114.46 30.91C113.89 30.91 113.42 30.83 113.09 30.64V29.51V29.52Z" fill="white"/>
<path d="M125.92 22.54C126.14 22.82 126.28 23.32 126.28 23.81C126.28 25.28 125.17 26.05 123.59 26.05C123.2 26.05 122.76 26.01 122.48 25.91L122.42 26.76H124.55C125.88 26.76 126.71 27.36 126.71 28.55C126.71 29.97 125.45 30.9 123.35 30.9C121.25 30.9 120.48 30.23 120.48 29.23C120.48 28.5 121.11 28.04 121.56 27.94C121.22 27.77 121.01 27.38 121.01 27.03C121.01 26.41 121.43 26.01 121.79 25.73C121.09 25.35 120.7 24.64 120.7 23.71C120.7 22.25 121.67 21.2 123.6 21.2C124.22 21.2 124.93 21.41 125.28 21.68C125.73 20.99 126.37 20.8 127.05 20.84L127.08 22.38L125.92 22.52V22.54ZM122.01 28.87C122.01 29.36 122.33 29.71 123.41 29.71C124.4 29.71 125.08 29.4 125.08 28.81C125.08 28.45 124.88 28.15 124.23 28.15H122.44C122.22 28.32 122.02 28.54 122.02 28.86L122.01 28.87ZM124.81 23.76C124.81 23.07 124.43 22.6 123.55 22.6C122.61 22.6 122.25 23.08 122.25 23.76C122.25 24.4 122.56 24.88 123.55 24.88C124.47 24.88 124.81 24.42 124.81 23.76Z" fill="white"/>
<path d="M127.59 26.41H128.93V22.73H127.59V21.37H130.49V26.41H131.74V27.75H127.59V26.41ZM128.67 19.15C128.67 18.48 129.09 18.18 129.65 18.18C130.14 18.18 130.62 18.47 130.62 19.15C130.62 19.83 130.14 20.09 129.65 20.09C129.09 20.09 128.67 19.84 128.67 19.15Z" fill="white"/>
<path d="M137.41 25.98L137.91 27.21C137.24 27.63 136.31 27.91 135.47 27.91C133.26 27.91 132.35 26.51 132.35 24.56C132.35 22.74 133.33 21.23 135.29 21.23C137.25 21.23 137.98 22.62 137.98 23.99C137.98 24.34 137.94 24.82 137.87 25.08H134C134.03 25.98 134.5 26.52 135.48 26.52C136.15 26.52 136.81 26.32 137.4 25.97L137.41 25.98ZM135.18 18.01L136.2 20.29H134.78L133.56 18.01H135.17H135.18ZM136.45 23.91C136.46 23.83 136.46 23.76 136.46 23.71C136.46 22.92 135.93 22.53 135.28 22.53C134.4 22.53 134.06 23.15 134.01 23.9H136.45V23.91Z" fill="white"/>
<path d="M138.95 26.41H139.78V22.73H138.98V21.37H141.17V22.13C141.49 21.74 142.05 21.23 143.33 21.23C144.79 21.23 145.49 22.1 145.49 23.75V26.41H146.3V27.75H143.01V26.41H143.93V23.92C143.93 23.15 143.66 22.7 142.73 22.7C142.18 22.7 141.61 22.97 141.34 23.18V26.42H142.24V27.76H138.96V26.42L138.95 26.41Z" fill="white"/>
<path d="M152.03 25.98L152.53 27.21C151.86 27.63 150.93 27.91 150.09 27.91C147.88 27.91 146.97 26.51 146.97 24.56C146.97 22.74 147.95 21.23 149.91 21.23C151.87 21.23 152.6 22.62 152.6 23.99C152.6 24.34 152.56 24.82 152.49 25.08H148.62C148.65 25.98 149.12 26.52 150.1 26.52C150.77 26.52 151.43 26.32 152.02 25.97L152.03 25.98ZM151.08 23.91C151.09 23.83 151.09 23.76 151.09 23.71C151.09 22.92 150.56 22.53 149.91 22.53C149.03 22.53 148.69 23.15 148.64 23.9H151.08V23.91Z" fill="white"/>
<path d="M161.28 23.36H160.05L159.87 22.51C159.62 22.41 159.34 22.36 158.99 22.36C158.43 22.36 158.18 22.68 158.18 23.03C158.18 23.34 158.31 23.56 158.77 23.72L159.78 24.03C160.94 24.39 161.53 24.97 161.53 25.96C161.53 26.95 160.87 27.92 158.88 27.92C157.9 27.92 157.16 27.77 156.47 27.49L156.36 25.67H157.59L157.87 26.62C158.12 26.75 158.49 26.82 158.86 26.82C159.41 26.82 159.76 26.58 159.76 26.15C159.76 25.84 159.56 25.6 159.14 25.46L158.08 25.12C157 24.78 156.44 24.18 156.44 23.21C156.44 22.31 157.01 21.24 158.99 21.24C159.82 21.24 160.74 21.41 161.29 21.65V23.37L161.28 23.36Z" fill="white"/>
<path d="M167.5 25.98L168 27.21C167.33 27.63 166.4 27.91 165.56 27.91C163.35 27.91 162.44 26.51 162.44 24.56C162.44 22.74 163.42 21.23 165.38 21.23C167.34 21.23 168.07 22.62 168.07 23.99C168.07 24.34 168.03 24.82 167.96 25.08H164.09C164.12 25.98 164.59 26.52 165.57 26.52C166.24 26.52 166.9 26.32 167.49 25.97L167.5 25.98ZM166.55 23.91C166.56 23.83 166.56 23.76 166.56 23.71C166.56 22.92 166.03 22.53 165.38 22.53C164.5 22.53 164.16 23.15 164.11 23.9H166.55V23.91ZM167.24 18.01L166.02 20.29H164.61L165.63 18.01H167.24Z" fill="white"/>
<path d="M174.15 26.02L174.53 27.31C173.82 27.69 172.92 27.91 171.99 27.91C169.82 27.91 168.98 26.36 168.98 24.55C168.98 22.74 169.99 21.23 172.08 21.23C173.1 21.23 173.91 21.54 174.49 21.79L174.2 24.12H172.93V22.69C172.68 22.61 172.45 22.58 172.09 22.58C171.14 22.58 170.69 23.36 170.69 24.41C170.69 25.46 171.04 26.45 172.17 26.45C172.84 26.45 173.61 26.27 174.16 26.02H174.15Z" fill="white"/>
<path d="M181.72 26.4H182.67V27.76H180.48V26.64C180.14 27.2 179.42 27.9 178.11 27.9C176.74 27.9 176.04 27.05 176.04 25.38V22.72H175.12V21.38H177.6V25.22C177.6 25.99 177.85 26.44 178.78 26.44C179.34 26.44 179.93 26.13 180.18 25.67V22.73H179V21.39H181.72V26.42V26.4Z" fill="white"/>
<path d="M183.4 21.37H185.77V22.76C185.97 22.16 186.72 21.23 187.58 21.23C187.87 21.23 188.28 21.26 188.56 21.3L188.43 23.09L187.3 22.88C186.7 22.92 186.17 23.23 185.89 23.72V26.41H187.3V27.75H183.41V26.53L184.33 26.28V22.72H183.41V21.36L183.4 21.37Z" fill="white"/>
<path d="M189.15 26.41H190.49V22.73H189.15V21.37H192.05V26.41H193.3V27.75H189.15V26.41ZM190.23 19.15C190.23 18.48 190.65 18.18 191.21 18.18C191.7 18.18 192.18 18.47 192.18 19.15C192.18 19.83 191.7 20.09 191.21 20.09C190.65 20.09 190.23 19.84 190.23 19.15Z" fill="white"/>
<path d="M196.22 25.7C196.22 26.22 196.51 26.44 196.95 26.44C197.17 26.44 197.62 26.4 197.92 26.34L197.96 27.71C197.62 27.82 196.94 27.91 196.48 27.91C195.18 27.91 194.67 27.06 194.67 25.92V22.73H193.51V21.51L194.67 21.37V19.8L196.23 19.55V21.37H197.74V22.73H196.23V25.7H196.22Z" fill="white"/>
<path d="M203.71 25.98L204.21 27.21C203.54 27.63 202.61 27.91 201.77 27.91C199.56 27.91 198.65 26.51 198.65 24.56C198.65 22.74 199.63 21.23 201.59 21.23C203.55 21.23 204.28 22.62 204.28 23.99C204.28 24.34 204.24 24.82 204.17 25.08H200.3C200.33 25.98 200.8 26.52 201.78 26.52C202.45 26.52 203.11 26.32 203.7 25.97L203.71 25.98ZM202.76 23.91C202.77 23.83 202.77 23.76 202.77 23.71C202.77 22.92 202.24 22.53 201.59 22.53C200.71 22.53 200.37 23.15 200.32 23.9H202.76V23.91ZM203.45 18.01L202.23 20.29H200.82L201.84 18.01H203.45Z" fill="white"/>
<path d="M107.6 40.98L108.1 42.21C107.43 42.63 106.5 42.91 105.66 42.91C103.45 42.91 102.54 41.51 102.54 39.56C102.54 37.74 103.52 36.23 105.48 36.23C107.44 36.23 108.17 37.62 108.17 38.99C108.17 39.34 108.13 39.82 108.06 40.08H104.19C104.22 40.98 104.69 41.52 105.67 41.52C106.34 41.52 107 41.32 107.59 40.97L107.6 40.98ZM106.65 38.91C106.66 38.83 106.66 38.76 106.66 38.71C106.66 37.92 106.13 37.53 105.48 37.53C104.6 37.53 104.26 38.15 104.21 38.9H106.65V38.91Z" fill="white"/>
<path d="M109.14 41.41H109.97V37.73H109.17V36.37H111.36V37.13C111.68 36.74 112.24 36.23 113.52 36.23C114.98 36.23 115.68 37.1 115.68 38.75V41.41H116.49V42.75H113.2V41.41H114.12V38.92C114.12 38.15 113.85 37.7 112.92 37.7C112.37 37.7 111.8 37.97 111.53 38.18V41.42H112.43V42.76H109.15V41.42L109.14 41.41Z" fill="white"/>
<path d="M120.83 36.37H124.12V37.73H123.32L121.37 42.76H119.37L117.45 37.73H116.65V36.37H120.03V37.73H119.15L120.41 41.3L121.7 37.73H120.83V36.37Z" fill="white"/>
<path d="M124.67 41.41H126.01V37.73H124.67V36.37H127.57V41.41H128.82V42.75H124.67V41.41ZM125.75 34.15C125.75 33.48 126.17 33.18 126.73 33.18C127.22 33.18 127.7 33.47 127.7 34.15C127.7 34.83 127.22 35.09 126.73 35.09C126.17 35.09 125.75 34.84 125.75 34.15Z" fill="white"/>
<path d="M129.47 36.37H131.84V37.76C132.04 37.16 132.79 36.23 133.65 36.23C133.94 36.23 134.35 36.26 134.63 36.3L134.5 38.09L133.37 37.88C132.77 37.92 132.24 38.23 131.96 38.72V41.41H133.37V42.75H129.48V41.53L130.4 41.28V37.72H129.48V36.36L129.47 36.37Z" fill="white"/>
<path d="M141.34 39.55C141.34 41.54 140.53 42.91 138.26 42.91C135.99 42.91 135.23 41.52 135.23 39.58C135.23 37.64 136.06 36.23 138.31 36.23C140.56 36.23 141.34 37.6 141.34 39.55ZM139.7 39.58C139.7 38.26 139.35 37.67 138.27 37.67C137.19 37.67 136.87 38.26 136.87 39.55C136.87 40.84 137.25 41.47 138.3 41.47C139.35 41.47 139.7 40.85 139.7 39.58Z" fill="white"/>
<path d="M142.29 41.41H143.12V37.73H142.32V36.37H144.51V37.13C144.83 36.74 145.39 36.23 146.67 36.23C148.13 36.23 148.83 37.1 148.83 38.75V41.41H149.64V42.75H146.35V41.41H147.27V38.92C147.27 38.15 147 37.7 146.07 37.7C145.52 37.7 144.95 37.97 144.68 38.18V41.42H145.58V42.76H142.3V41.42L142.29 41.41Z" fill="white"/>
<path d="M150.36 41.41H151.19V37.73H150.39V36.37H152.58V37.13C152.9 36.74 153.46 36.23 154.74 36.23C156.2 36.23 156.9 37.1 156.9 38.75V41.41H157.71V42.75H154.42V41.41H155.34V38.92C155.34 38.15 155.07 37.7 154.14 37.7C153.59 37.7 153.02 37.97 152.75 38.18V41.42H153.65V42.76H150.37V41.42L150.36 41.41Z" fill="white"/>
<path d="M163.43 40.98L163.93 42.21C163.26 42.63 162.33 42.91 161.49 42.91C159.28 42.91 158.37 41.51 158.37 39.56C158.37 37.74 159.35 36.23 161.31 36.23C163.27 36.23 164 37.62 164 38.99C164 39.34 163.96 39.82 163.89 40.08H160.02C160.05 40.98 160.52 41.52 161.5 41.52C162.17 41.52 162.83 41.32 163.42 40.97L163.43 40.98ZM162.48 38.91C162.49 38.83 162.49 38.76 162.49 38.71C162.49 37.92 161.96 37.53 161.31 37.53C160.43 37.53 160.09 38.15 160.04 38.9H162.48V38.91Z" fill="white"/>
<path d="M164.97 41.41H165.8V37.73H165V36.37H167.19V37.11C167.46 36.66 168.07 36.23 168.96 36.23C169.85 36.23 170.32 36.59 170.65 37.15C170.99 36.67 171.63 36.23 172.67 36.23C174.11 36.23 174.67 37.07 174.67 38.63V41.42H175.48V42.76H172.45V41.42H173.11V38.76C173.11 38.1 172.89 37.71 172.19 37.71C171.69 37.71 171.25 37.93 171.03 38.19V41.43H171.7V42.77H168.8V41.43H169.49V38.32C169.32 37.97 169 37.72 168.48 37.72C167.93 37.72 167.61 37.93 167.36 38.18V41.43H168.02V42.77H164.98V41.43L164.97 41.41Z" fill="white"/>
<path d="M181.24 40.98L181.74 42.21C181.07 42.63 180.14 42.91 179.3 42.91C177.09 42.91 176.18 41.51 176.18 39.56C176.18 37.74 177.16 36.23 179.12 36.23C181.08 36.23 181.81 37.62 181.81 38.99C181.81 39.34 181.77 39.82 181.7 40.08H177.83C177.86 40.98 178.33 41.52 179.31 41.52C179.98 41.52 180.64 41.32 181.23 40.97L181.24 40.98ZM180.29 38.91C180.3 38.83 180.3 38.76 180.3 38.71C180.3 37.92 179.77 37.53 179.12 37.53C178.24 37.53 177.9 38.15 177.85 38.9H180.29V38.91Z" fill="white"/>
<path d="M182.78 41.41H183.61V37.73H182.81V36.37H185V37.13C185.32 36.74 185.88 36.23 187.16 36.23C188.62 36.23 189.32 37.1 189.32 38.75V41.41H190.13V42.75H186.84V41.41H187.76V38.92C187.76 38.15 187.49 37.7 186.56 37.7C186.01 37.7 185.44 37.97 185.17 38.18V41.42H186.07V42.76H182.79V41.42L182.78 41.41Z" fill="white"/>
<path d="M193.13 40.7C193.13 41.22 193.42 41.44 193.86 41.44C194.08 41.44 194.53 41.4 194.83 41.34L194.87 42.71C194.53 42.82 193.85 42.91 193.39 42.91C192.09 42.91 191.58 42.06 191.58 40.92V37.73H190.42V36.51L191.58 36.37V34.8L193.14 34.55V36.37H194.65V37.73H193.14V40.7H193.13Z" fill="white"/>
<path d="M250.77 43.82C251.14 43.34 251.32 42.77 251.32 42.13C251.32 41.41 251.05 40.77 250.53 40.25C250.02 39.73 249.39 39.47 248.64 39.47H246.03C245.66 39.47 245.41 39.73 245.41 40.09V48.53C245.41 48.89 245.67 49.15 246.03 49.15H248.96C249.72 49.15 250.38 48.88 250.93 48.33C251.48 47.78 251.76 47.12 251.76 46.36V45.99C251.76 45.44 251.61 44.91 251.3 44.44C251.15 44.2 250.97 43.99 250.77 43.81M249.2 42.81C249.03 42.98 248.81 43.07 248.51 43.07H247.26V41.32H248.64C248.89 41.32 249.05 41.39 249.22 41.55C249.39 41.72 249.46 41.89 249.46 42.13C249.46 42.43 249.38 42.63 249.2 42.82M247.26 44.93H248.82C249.11 44.93 249.36 45.03 249.56 45.24C249.78 45.46 249.88 45.71 249.88 46V46.37C249.88 46.62 249.79 46.83 249.6 47.02C249.41 47.21 249.2 47.3 248.94 47.3H247.25V44.94L247.26 44.93Z" fill="white"/>
<path d="M256.57 39.34C255.67 39.34 254.89 39.66 254.26 40.3C253.62 40.94 253.3 41.72 253.3 42.61V46.05C253.3 46.95 253.62 47.73 254.26 48.36C254.9 49 255.68 49.32 256.57 49.32C257.46 49.32 258.25 49 258.88 48.36C259.52 47.72 259.84 46.94 259.84 46.05V42.61C259.84 41.71 259.52 40.93 258.88 40.3C258.24 39.66 257.47 39.34 256.57 39.34ZM255.15 42.61C255.15 42.21 255.28 41.89 255.57 41.6C255.84 41.33 256.17 41.19 256.57 41.19C256.97 41.19 257.29 41.32 257.57 41.6C257.86 41.89 257.99 42.21 257.99 42.61V46.05C257.99 46.46 257.86 46.76 257.57 47.05C257.29 47.33 256.96 47.47 256.57 47.47C256.18 47.47 255.86 47.33 255.57 47.04C255.29 46.77 255.16 46.45 255.16 46.05V42.61H255.15Z" fill="white"/>
<path d="M272.97 39.47H270.88C270.51 39.47 270.26 39.73 270.26 40.09V48.53C270.26 48.89 270.52 49.15 270.88 49.15H273.28C274.16 49.15 274.91 48.84 275.53 48.21C276.15 47.59 276.47 46.83 276.47 45.96V42.95C276.47 42 276.12 41.16 275.44 40.48C274.76 39.8 273.93 39.46 272.97 39.46M273.28 47.29H272.12V41.32H272.97C273.43 41.32 273.81 41.48 274.12 41.8C274.45 42.13 274.61 42.51 274.61 42.95V45.96C274.61 46.34 274.48 46.63 274.21 46.9C273.94 47.17 273.64 47.3 273.27 47.3" fill="white"/>
<path d="M283.39 47.3H280.31V44.93H282.88C283.23 44.93 283.49 44.66 283.49 44.31V43.7C283.49 43.33 283.24 43.08 282.88 43.08H280.31V41.34H283.31C283.67 41.34 283.93 41.07 283.93 40.72V40.11C283.93 39.75 283.67 39.49 283.31 39.49H279.08C278.71 39.49 278.46 39.75 278.46 40.11V48.55C278.46 48.91 278.72 49.17 279.08 49.17H283.4C283.76 49.17 284.02 48.91 284.02 48.55V47.94C284.02 47.58 283.76 47.32 283.4 47.32" fill="white"/>
<path d="M290.31 39.9C290.22 39.63 290 39.47 289.72 39.47H288.59C288.31 39.47 288.09 39.63 288 39.91L285.44 48.29C285.41 48.36 285.39 48.45 285.39 48.54C285.39 48.9 285.65 49.16 286.01 49.16H286.65C286.94 49.16 287.18 48.98 287.24 48.72L288 46.26H290.31L291.06 48.73V48.76C291.17 49.01 291.39 49.15 291.66 49.15H292.3C292.66 49.15 292.92 48.88 292.92 48.53C292.92 48.44 292.9 48.36 292.87 48.3L290.3 39.9H290.31ZM289.85 44.4H288.48L289.16 42.08L289.85 44.4Z" fill="white"/>
<path d="M299.86 39.47H299.25C298.89 39.47 298.63 39.73 298.63 40.09V46.25C298.63 46.6 298.52 46.87 298.28 47.1C298.04 47.34 297.76 47.46 297.43 47.46C297.1 47.46 296.82 47.34 296.57 47.09C296.34 46.86 296.22 46.58 296.22 46.24V40.08C296.22 39.71 295.96 39.46 295.6 39.46H294.99C294.63 39.46 294.37 39.72 294.37 40.08V46.24C294.37 47.08 294.67 47.81 295.27 48.41C295.87 49.01 296.6 49.31 297.44 49.31C298.28 49.31 299.01 49.01 299.61 48.41C300.2 47.81 300.49 47.08 300.49 46.24V40.08C300.49 39.71 300.23 39.46 299.87 39.46" fill="white"/>
<path d="M306.29 44.29L308.45 40.33L308.49 40.22C308.55 39.96 308.46 39.78 308.38 39.68C308.31 39.6 308.16 39.46 307.89 39.46H307.27C307.01 39.46 306.8 39.6 306.72 39.81L305.28 42.44L303.84 39.82C303.75 39.59 303.54 39.45 303.28 39.45H302.66C302.39 39.45 302.24 39.59 302.17 39.67C302.09 39.77 302 39.95 302.06 40.23L302.1 40.34L304.26 44.29L302.1 48.22L302.07 48.3C301.98 48.59 302.09 48.78 302.15 48.87C302.22 48.96 302.37 49.11 302.66 49.11H303.3C303.55 49.11 303.76 48.97 303.86 48.74L305.28 46.14L306.7 48.73C306.8 48.97 307.02 49.11 307.26 49.11H307.9C308.18 49.11 308.34 48.96 308.41 48.87C308.48 48.78 308.58 48.58 308.49 48.29L306.3 44.29H306.29Z" fill="white"/>
<path d="M268.22 48.29L266.53 45.07C266.74 44.95 266.94 44.8 267.12 44.61C267.65 44.08 267.92 43.43 267.92 42.68V42.2C267.92 41.44 267.65 40.79 267.12 40.26C266.6 39.73 265.95 39.47 265.19 39.47H262.47C262.1 39.47 261.85 39.73 261.85 40.09V48.53C261.85 48.89 262.11 49.15 262.47 49.15H263.08C263.44 49.15 263.7 48.88 263.7 48.53V45.41H264.69L266.43 48.74C266.54 48.98 266.75 49.12 267 49.12H267.64C267.93 49.12 268.08 48.97 268.15 48.88C268.22 48.79 268.32 48.59 268.23 48.31V48.29M266.08 42.2V42.68C266.08 42.92 266 43.11 265.82 43.29C265.63 43.47 265.45 43.55 265.21 43.55H263.72V41.32H265.21C265.45 41.32 265.65 41.4 265.81 41.56C266 41.76 266.08 41.95 266.08 42.19" fill="white"/>
<path d="M239.1 43.88H238.9C238.9 43.88 238.83 43.86 238.83 43.81V43.76C238.83 43.76 238.81 43.69 238.76 43.69C238.74 43.69 238.73 43.69 238.72 43.7C238.5 43.88 238.25 43.96 237.99 43.96C237.52 43.96 237.16 43.72 236.88 43.23C236.84 43.16 236.82 43.09 236.82 43.01V41.87C236.82 41.42 237.05 41.06 237.5 40.79C237.51 40.79 237.53 40.77 237.55 40.77C237.95 40.67 238.31 40.69 238.6 40.89C238.61 40.89 238.62 40.9 238.65 40.9C238.69 40.9 238.71 40.88 238.71 40.85V39.55C238.71 39.55 238.73 39.48 238.78 39.48H239.09C239.09 39.48 239.15 39.5 239.15 39.55V43.81C239.15 43.81 239.13 43.88 239.09 43.88M238.71 41.88C238.71 41.68 238.64 41.51 238.5 41.37C238.35 41.22 238.19 41.16 237.99 41.16C237.79 41.16 237.61 41.23 237.48 41.37C237.34 41.51 237.27 41.68 237.27 41.88V42.8C237.27 43 237.34 43.17 237.48 43.31C237.62 43.45 237.79 43.52 237.99 43.52C238.19 43.52 238.36 43.45 238.5 43.31C238.65 43.16 238.71 43 238.71 42.8V41.88Z" fill="white"/>
<path d="M242.07 42.54H240.42C240.42 42.54 240.35 42.56 240.35 42.61V42.8C240.35 43.01 240.42 43.18 240.56 43.31C240.71 43.46 240.87 43.53 241.07 43.53C241.32 43.53 241.55 43.46 241.76 43.31C241.79 43.29 241.82 43.29 241.84 43.32L242.02 43.58C242.02 43.58 242.04 43.65 242 43.67C241.65 43.93 241.23 44.01 240.76 43.94C240.69 43.93 240.62 43.9 240.56 43.87C240.12 43.59 239.9 43.25 239.9 42.79V41.57C239.9 41.51 239.91 41.46 239.94 41.41C240.2 40.95 240.56 40.71 241.01 40.71C241.32 40.71 241.58 40.82 241.8 41.04C242.02 41.26 242.12 41.52 242.12 41.82V42.47C242.12 42.47 242.1 42.54 242.06 42.54M241.68 41.83C241.68 41.65 241.62 41.49 241.49 41.36C241.36 41.23 241.2 41.17 241.02 41.17C240.84 41.17 240.68 41.23 240.55 41.36C240.42 41.49 240.35 41.65 240.35 41.83V42.04C240.35 42.04 240.37 42.11 240.42 42.11H241.62C241.62 42.11 241.68 42.09 241.68 42.04V41.83Z" fill="white"/>
<path d="M261.47 30.45V22.24C261.47 22.02 261.33 21.93 261.09 21.93H259.06C258.78 21.93 258.68 21.81 258.68 21.59V19.96C258.68 19.74 258.79 19.65 259.06 19.65H261.09C261.33 19.65 261.47 19.52 261.47 19.3V15.39C261.47 15.17 261.61 15.05 261.85 15.05H263.63C263.88 15.05 264.02 15.18 264.02 15.39V19.3C264.02 19.52 264.16 19.65 264.4 19.65H269.75C270.03 19.65 270.13 19.74 270.13 19.96V21.59C270.13 21.81 270.03 21.93 269.75 21.93H264.4C264.15 21.93 264.02 22.02 264.02 22.24V30.45" fill="white"/>
<path d="M264.03 26.41V30.88C264.01 31.99 264.16 32.91 264.47 33.63C264.78 34.35 265.53 34.72 266.71 34.72C267.16 34.72 267.72 34.63 268.39 34.45C269.06 34.27 269.83 33.99 270.69 33.63C270.72 33.73 270.74 33.8 270.74 33.85C270.74 33.9 270.76 33.96 270.77 34.02C270.29 34.49 269.4 34.96 268.12 35.42C266.83 35.88 265.67 36.11 264.64 36.11C263.75 36.11 262.98 35.83 262.34 35.28C261.7 34.73 261.38 33.78 261.38 32.43V30.56L261.48 27.64" fill="white"/>
<path d="M244.31 25.39V30.61C244.31 31.53 244.66 32.33 245.39 32.99C246.12 33.66 246.96 33.97 248 33.97C249.04 33.97 249.88 33.65 250.57 32.99C251.3 32.32 251.68 31.53 251.68 30.61V20C251.68 19.78 251.78 19.68 252.03 19.68H253.84C254.08 19.68 254.22 19.77 254.22 20V30.61C254.22 32.17 253.59 33.5 252.38 34.61C251.16 35.72 249.7 36.29 248 36.29C246.3 36.29 244.8 35.72 243.58 34.61C242.36 33.5 241.77 32.16 241.77 30.61V25.39H244.31Z" fill="white"/>
<path d="M244.31 20.08C244.31 19.72 244.03 19.49 243.78 19.49C243.42 19.49 242.34 19.65 241.77 19.65C240.01 19.65 239.83 19.58 239.47 19.58C239.18 19.58 238.93 19.78 238.93 20.14C238.93 20.5 239.18 20.73 239.47 20.73C239.83 20.73 240.01 20.6 241.77 20.6V25.38H244.32V20.07L244.31 20.08Z" fill="white"/>
<path d="M233.67 18.15C232.36 18.15 231.39 16.84 231.39 15.61C231.39 14.47 232.53 13.33 233.67 13.33C234.9 13.33 236.16 14.35 236.16 15.61C236.16 17.05 235.1 18.15 233.67 18.15Z" fill="white"/>
<path d="M235.66 24.79V35.53C235.66 35.75 235.53 35.88 235.31 35.88H233.69C233.44 35.88 233.34 35.75 233.34 35.53V26.33L235.66 24.79Z" fill="white"/>
<path d="M235.66 24.79V19.6H231.58V21.7H233.34V26.33L235.66 24.79Z" fill="white"/>
<path d="M61.1729 12.9011C67.5444 11.5112 75.4568 11.8302 84.4092 16.9587C75.874 16.2177 65.3686 16.5818 54.6211 25.4743C43.0688 35.0228 33.6655 43.1014 22.4844 47.5759C16.5641 49.945 12.1773 50.3739 8.69336 50.0739C6.6441 49.8974 4.91338 49.471 3.33594 49.0222C9.60369 48.8594 16.4918 48.1331 22.6123 42.9821C26.1755 39.9783 30.8242 34.9364 35.2324 30.2565C37.4432 27.9095 39.597 25.6494 41.5371 23.7643C43.3624 21.9908 44.9752 20.5737 46.2539 19.7263L46.5049 19.5641C49.2541 17.8503 54.3384 14.3919 61.1729 12.9011Z" stroke="white"/>
<path d="M54.8 27.01C53.71 25.81 52.31 25.21 50.6 25.21C49.4 25.21 48.3 25.5 47.3 26.09C46.3 26.68 45.46 27.46 44.76 28.44V15.82C44.76 15.03 44.08 14.63 42.72 14.63H41.87C40.48 14.63 39.78 15.03 39.78 15.82V49.28C39.78 50.07 40.48 50.46 41.87 50.46H42.68C44.07 50.46 44.77 50.07 44.77 49.28V32.19C45.02 31.56 45.49 30.93 46.17 30.32C46.85 29.7 47.65 29.39 48.57 29.39C50.53 29.39 51.51 30.64 51.51 33.14V48.91C53.18 47.13 54.85 45.35 56.44 43.7V32.43C56.44 30.03 55.9 28.22 54.8 27.02V27.01Z" fill="white"/>
<path d="M65.51 34.18C64.91 33.58 64.61 32.79 64.61 31.81C64.61 31.02 64.88 30.4 65.42 29.96C65.96 29.52 66.65 29.29 67.51 29.29C68.37 29.29 69.12 29.47 69.79 29.84C70.45 30.21 70.82 30.39 70.88 30.39C71.16 30.39 71.5 30.01 71.9 29.25C72.29 28.49 72.49 27.89 72.49 27.45C72.49 26.82 71.91 26.29 70.76 25.86C69.6 25.43 68.35 25.22 66.99 25.22C64.87 25.22 63.14 25.85 61.79 27.12C60.44 28.39 59.77 30.08 59.77 32.2C59.77 33.97 60.19 35.38 61.03 36.42C61.44 36.93 61.94 37.41 62.54 37.85C63.3 37.22 64 36.69 64.61 36.3C65.16 35.96 65.82 35.54 66.57 35.07C66.55 35.05 66.12 34.79 65.51 34.18Z" fill="white"/>
<path d="M91.2 28.41C89.79 26.27 87.66 25.21 84.82 25.21C81.75 25.21 79.4 26.28 77.77 28.41C77.35 28.96 76.98 29.59 76.67 30.29C80.94 28.97 86.03 28.3 91.75 29.38L91.2 28.41Z" fill="white"/>
<path d="M53.59 50.46H54.4C55.76 50.46 56.44 50.07 56.44 49.28V43.7C54.85 45.35 53.18 47.13 51.51 48.91V49.28C51.51 50.07 52.21 50.46 53.6 50.46H53.59Z" fill="white"/>
<path d="M60.17 49.18C60.79 49.65 61.59 50.04 62.59 50.34C63.59 50.64 64.64 50.79 65.75 50.79C67.96 50.79 69.78 50.11 71.21 48.75C72.63 47.39 73.35 45.62 73.35 43.44C73.35 41.57 72.92 40.09 72.07 38.98C71.22 37.87 69.92 36.91 68.18 36.09C67.57 35.74 67.04 35.4 66.58 35.08C65.83 35.54 65.18 35.96 64.62 36.31C64 36.7 63.3 37.23 62.54 37.86C63.16 38.32 63.88 38.75 64.71 39.13C66.01 39.79 66.97 40.46 67.6 41.12C68.23 41.78 68.55 42.62 68.55 43.64C68.55 44.66 68.28 45.36 67.74 45.87C67.2 46.38 66.43 46.63 65.41 46.63C64.71 46.63 64.09 46.51 63.54 46.27C62.99 46.03 62.47 45.76 62 45.44C61.53 45.12 61.24 44.96 61.15 44.96C60.83 44.96 60.44 45.32 59.96 46.05C59.49 46.78 59.25 47.36 59.25 47.8C59.25 48.24 59.56 48.7 60.17 49.18Z" fill="white"/>
<path d="M76.67 30.29C75.77 32.3 75.33 34.9 75.33 38.12C75.33 42.33 76.17 45.47 77.84 47.56C79.52 49.65 82.06 50.69 85.48 50.69C86.62 50.69 87.75 50.53 88.87 50.22C89.99 49.9 90.91 49.5 91.62 49.01C92.33 48.52 92.69 48.04 92.69 47.56C92.69 47.18 92.47 46.63 92.02 45.9C91.58 45.17 91.17 44.81 90.79 44.81C90.69 44.81 90.4 44.98 89.91 45.31C89.42 45.64 88.83 45.95 88.13 46.24C87.43 46.52 86.56 46.67 85.52 46.67C83.87 46.67 82.65 46.14 81.84 45.08C81.04 44.02 80.57 42.3 80.44 39.93H91.45C91.74 39.93 92.11 39.65 92.59 39.08C93.06 38.51 93.3 38.07 93.3 37.75C93.3 34.25 92.78 31.47 91.74 29.4C86.02 28.31 80.92 28.98 76.66 30.31L76.67 30.29ZM87.52 30.9C88.12 32.07 88.42 33.86 88.42 36.26H80.4C80.53 33.79 80.94 31.99 81.63 30.85C82.33 29.71 83.35 29.14 84.72 29.14C85.98 29.14 86.92 29.72 87.52 30.9Z" fill="white"/>
</g>
</svg>
